<?xml version="1.0" encoding="UTF-8" standalone="no"?>
<!DOCTYPE svg PUBLIC "-//W3C//DTD SVG 1.1//EN" "http://www.w3.org/Graphics/SVG/1.1/DTD/svg11.dtd">
<svg width="100%" height="100%" viewBox="0 0 879 482" version="1.1" xmlns="http://www.w3.org/2000/svg" xmlns:xlink="http://www.w3.org/1999/xlink" xml:space="preserve" xmlns:serif="http://www.serif.com/" style="fill-rule:evenodd;clip-rule:evenodd;stroke-linejoin:round;stroke-miterlimit:2;">
    <g transform="matrix(0.885477,0,0,0.885477,0.962334,-181.058)">
        <path d="M627.048,328.536C637.036,320.89 656.064,306.598 671.704,296.451C682.75,289.286 692.558,284.353 697.394,283.622C708.133,281.998 728.011,276.457 745.945,278.356C762.94,280.161 777.904,289.124 791.96,298.117C826.211,320.038 846.308,359.841 849.845,367.27L873.916,397.975L936.78,459.554L790.01,442.912L752.566,477.47L752.551,477.457L565.396,650.226L116.112,724.764L308.097,621.027L403.197,555.055L468.537,486.928L40.634,474.243L530.589,235.445L627.048,328.536ZM526.771,259.555L122.366,456.657L514.143,468.272L416.243,570.345L318.583,638.093L230.968,685.436L556.224,631.474L738.133,463.548L619.376,348.925L526.771,259.555ZM832.633,377.731L832.129,376.595C832.129,376.595 814.296,336.157 781.181,314.964C769.696,307.616 757.721,299.72 743.835,298.244C727.768,296.543 710.007,301.942 700.384,303.398C696.959,303.915 690.409,308.157 682.589,313.23C668.573,322.323 651.76,334.847 641.618,342.57L752.874,449.97L783.17,422.008L881.22,433.126L858.984,411.345L832.633,377.731Z"/>
    </g>
</svg>
